# xmcd CD database file
#
# Track frame offsets:
#	150
#	11624
#	24102
#	34821
#	47297
#	58517
#	69790
#	80603
#	92043
#	106616
#
# Disc length: 1577 seconds
#
# Revision: 0
# Processed by: cddbd v1.5.2PL0 Copyright (c) Steve Scherf et al.
# Submitted via: CDex 1.70beta2
#
DISCID=6406270a
DTITLE=Williams, Hank Jr. - USA - Cty. - I've Got a Right to Cry
DYEAR=1900
DGENRE=Country
TTITLE0=I've got a Right to Cry
TTITLE1=Another Place, Another Time
TTITLE2=A day in the Life of a Fool
TTITLE3=Future on Ice
TTITLE4=Happy Kind of Sadness
TTITLE5=After all they Used to Belong to Me
TTITLE6=I Almost Lost my Mind
TTITLE7=I Can't Be Myself
TTITLE8=Afraid of Losing You Again
TTITLE9=The end of a Bad Day
EXTD=
EXTT0=
EXTT1=
EXTT2=
EXTT3=
EXTT4=
EXTT5=
EXTT6=
EXTT7=
EXTT8=
EXTT9=
PLAYORDER=
